<svg xmlns="http://www.w3.org/2000/svg" width="17.871" height="13.697" viewBox="0 0 17.871 13.697">
    <defs>
        <style>
            .cls-1{fill:#9543e2}
        </style>
    </defs>
    <g id="check" transform="translate(0 -51.678)">
        <path id="Path_229" d="M17.548 53.569L15.98 52a1.113 1.113 0 0 0-1.568 0l-7.563 7.576-3.39-3.4a1.067 1.067 0 0 0-.784-.323 1.067 1.067 0 0 0-.784.323L.323 57.743a1.114 1.114 0 0 0 0 1.568L4.5 63.485l1.568 1.568a1.113 1.113 0 0 0 1.568 0L9.2 63.485l8.348-8.348a1.114 1.114 0 0 0 0-1.568z" class="cls-1" data-name="Path 229"/>
    </g>
</svg>
